<svg width="133" height="33" viewBox="0 0 133 33" fill="none" xmlns="http://www.w3.org/2000/svg">
<path d="M114.848 12.04C115.808 12.04 116.715 12.96 117.568 14.8C118.821 13.4933 120.368 12.84 122.208 12.84C124.075 12.84 125.475 13.2533 126.408 14.08C127.341 14.88 127.808 16.0267 127.808 17.52C127.808 18.9867 127.608 20.48 127.208 22C126.835 23.52 126.555 24.6133 126.368 25.28C126.208 25.92 126.128 26.4533 126.128 26.88C126.128 27.3067 126.275 27.52 126.568 27.52C126.968 27.52 127.461 27.2667 128.048 26.76C128.635 26.2533 129.221 25.7067 129.808 25.12C130.395 24.5067 130.928 23.9467 131.408 23.44C131.915 22.9333 132.261 22.68 132.448 22.68C132.821 22.68 133.008 23.1333 133.008 24.04C133.008 25.9067 132.088 27.7067 130.248 29.44C127.155 31.2533 125.181 32.16 124.328 32.16C124.248 32.16 124.195 32.1467 124.168 32.12C122.035 32.12 120.968 30.4133 120.968 27C120.968 25.5333 121.101 24.1867 121.368 22.96C121.661 21.7333 121.875 20.84 122.008 20.28C122.141 19.72 122.208 19.1467 122.208 18.56C122.208 17.6 121.648 17.12 120.528 17.12C119.435 17.12 118.381 17.9467 117.368 19.6C116.381 21.2267 115.715 22.92 115.368 24.68V24.96C115.368 25.8667 115.501 26.8 115.768 27.76C116.061 28.72 116.208 29.3867 116.208 29.76C116.208 30.6667 115.075 31.56 112.808 32.44C112.461 32.5733 112.155 32.64 111.888 32.64C111.221 32.64 110.755 32.2933 110.488 31.6C110.248 30.9067 110.128 29.8267 110.128 28.36C110.128 24.5733 110.275 21.84 110.568 20.16C110.968 17.6533 111.875 15.32 113.288 13.16C113.768 12.4133 114.288 12.04 114.848 12.04Z" fill="#030A12"/>
<path d="M100.64 15.12C100.64 13.3333 102.026 12.44 104.8 12.44C105.493 12.44 105.92 12.6667 106.08 13.12C106.266 13.5733 106.36 14.2667 106.36 15.2C106.36 16.5067 106.066 18.5333 105.48 21.28C104.893 24.0267 104.613 25.88 104.64 26.84C104.64 27.2933 104.786 27.52 105.08 27.52C105.48 27.52 105.973 27.2667 106.56 26.76C107.146 26.2533 107.733 25.7067 108.32 25.12C108.906 24.5067 109.44 23.9467 109.92 23.44C110.426 22.9333 110.773 22.68 110.96 22.68C111.333 22.68 111.52 23.1333 111.52 24.04C111.52 25.9067 110.6 27.7067 108.76 29.44C105.666 31.2533 103.706 32.16 102.88 32.16C102.8 32.16 102.733 32.1467 102.68 32.12C101.666 32.12 100.946 31.7867 100.52 31.12C100.12 30.4533 99.8665 29.6133 99.7598 28.6C99.2265 29.5867 98.4931 30.44 97.5598 31.16C96.6265 31.8533 95.5598 32.2 94.3598 32.2C92.2531 32.2 90.6265 31.8 89.4798 31C88.3598 30.2 87.7998 29.0133 87.7998 27.44C87.7998 26.7467 87.8931 26.1067 88.0798 25.52C88.2931 24.9333 88.6265 24.2133 89.0798 23.36L90.2398 13.52C91.0665 12.88 92.2531 12.56 93.7998 12.56C95.0265 12.56 95.7198 13.36 95.8798 14.96C96.0131 16.2667 95.9465 17.44 95.6798 18.48C95.4398 19.4933 95.1065 20.7867 94.6798 22.36C94.2531 23.9067 94.0398 25.28 94.0398 26.48C94.0398 27.44 94.6398 27.92 95.8398 27.92C97.1465 27.92 98.2798 26.7733 99.2398 24.48C99.9865 22.72 100.493 20.76 100.76 18.6C100.733 18.3867 100.706 18.12 100.68 17.8C100.68 17.4533 100.666 17.12 100.64 16.8C100.64 16.48 100.64 16.16 100.64 15.84V15.12Z" fill="#030A12"/>
<path d="M70.8089 18.84C69.2622 19.0533 67.9822 19.16 66.9688 19.16C66.6222 19.16 66.4489 19.0267 66.4489 18.76C66.4489 18.1467 66.8622 17.5067 67.6889 16.84C68.5422 16.1467 69.9155 15.5467 71.8088 15.04C72.6622 12 73.6355 9.21333 74.7289 6.68C72.0622 6.81333 69.8755 7.69334 68.1688 9.32C67.7422 9.74667 67.3955 10.08 67.1289 10.32C66.8622 10.56 66.6222 10.68 66.4089 10.68C66.2222 10.68 66.0355 10.52 65.8488 10.2C65.6622 9.88 65.5688 9.45333 65.5688 8.92C65.5955 6.86667 66.9822 5.2 69.7289 3.92C72.4755 2.64 75.8622 2.01333 79.8888 2.04L91.8888 2.24C92.6088 2.24 92.9688 2.52 92.9688 3.08C92.9688 3.24 92.8622 3.53334 92.6488 3.96C92.4355 4.36 92.2489 4.8 92.0889 5.28C91.7422 6.24 90.9955 6.72 89.8489 6.72H88.5688L83.2488 6.68H80.1689C79.9555 8.2 79.3155 10.68 78.2488 14.12L85.5688 14.24C85.9955 14.24 86.2088 14.4933 86.2088 15C86.2088 15.16 86.1422 15.44 86.0089 15.84C85.8755 16.24 85.7555 16.6533 85.6488 17.08C85.4355 17.96 84.9822 18.4 84.2888 18.4L78.2088 18.12H77.6889C77.5289 18.12 77.3422 18.1333 77.1289 18.16C75.7422 23.2533 75.0489 27.28 75.0489 30.24C75.0489 31.8133 73.5155 32.6 70.4489 32.6C69.7822 32.6 69.3822 32.2667 69.2488 31.6C69.1422 30.9067 69.0889 30 69.0889 28.88C69.0889 26.48 69.6622 23.1333 70.8089 18.84Z" fill="#030A12"/>
<path d="M57.2804 15.12C57.2804 13.3333 58.6671 12.44 61.4404 12.44C62.1338 12.44 62.5604 12.6667 62.7204 13.12C62.9071 13.5733 63.0004 14.2667 63.0004 15.2C63.0004 16.5067 62.7071 18.5333 62.1204 21.28C61.5338 24.0267 61.2538 25.88 61.2804 26.84C61.2804 27.2933 61.4271 27.52 61.7204 27.52C62.1204 27.52 62.6138 27.2667 63.2004 26.76C63.7871 26.2533 64.3738 25.7067 64.9604 25.12C65.5471 24.5067 66.0804 23.9467 66.5604 23.44C67.0671 22.9333 67.4138 22.68 67.6004 22.68C67.9738 22.68 68.1604 23.1333 68.1604 24.04C68.1604 25.9067 67.2404 27.7067 65.4004 29.44C62.3071 31.2533 60.3471 32.16 59.5204 32.16C59.4404 32.16 59.3738 32.1467 59.3204 32.12C58.3071 32.12 57.5871 31.7867 57.1604 31.12C56.7604 30.4533 56.5071 29.6133 56.4004 28.6C55.8671 29.5867 55.1338 30.44 54.2004 31.16C53.2671 31.8533 52.2004 32.2 51.0004 32.2C48.8938 32.2 47.2671 31.8 46.1204 31C45.0004 30.2 44.4404 29.0133 44.4404 27.44C44.4404 26.7467 44.5338 26.1067 44.7204 25.52C44.9338 24.9333 45.2671 24.2133 45.7204 23.36L46.8804 13.52C47.7071 12.88 48.8938 12.56 50.4404 12.56C51.6671 12.56 52.3604 13.36 52.5204 14.96C52.6538 16.2667 52.5871 17.44 52.3204 18.48C52.0804 19.4933 51.7471 20.7867 51.3204 22.36C50.8938 23.9067 50.6804 25.28 50.6804 26.48C50.6804 27.44 51.2804 27.92 52.4804 27.92C53.7871 27.92 54.9204 26.7733 55.8804 24.48C56.6271 22.72 57.1338 20.76 57.4004 18.6C57.3738 18.3867 57.3471 18.12 57.3204 17.8C57.3204 17.4533 57.3071 17.12 57.2804 16.8C57.2804 16.48 57.2804 16.16 57.2804 15.84V15.12Z" fill="#030A12"/>
<path d="M46.1193 22.56C46.5993 22.56 46.8393 23.1733 46.8393 24.4C46.8393 25.0667 46.5593 25.88 45.9993 26.84C45.4393 27.7733 44.706 28.64 43.7993 29.44C42.9193 30.2133 41.9326 30.8533 40.8393 31.36C39.746 31.8667 38.6793 32.12 37.6393 32.12C36.1726 32.12 35.2126 30.92 34.7593 28.52C33.1593 31.0533 30.786 32.32 27.6393 32.32C25.7193 32.32 24.186 31.7333 23.0393 30.56C21.8926 29.3867 21.3326 27.96 21.3593 26.28C21.3593 21.7467 22.866 18.1733 25.8793 15.56C27.9593 13.7733 30.1193 12.88 32.3593 12.88C33.3726 12.88 34.1726 12.96 34.7593 13.12L35.6793 13.36C36.7726 8.21334 38.0393 4.77334 39.4793 3.04C39.9593 2.45334 40.4393 2.16 40.9193 2.16C41.6926 2.16 42.4126 2.69334 43.0793 3.76C43.666 4.64 43.9593 5.4 43.9593 6.04C43.9593 6.68001 43.866 7.30667 43.6793 7.92C43.4926 8.53334 43.2526 9.10667 42.9593 9.64001C42.6926 10.1467 42.386 10.6533 42.0393 11.16C41.6926 11.64 41.346 12.1333 40.9993 12.64C40.226 15.52 39.6526 18.7467 39.2793 22.32C39.1726 23.3333 39.1193 24.1467 39.1193 24.76C39.1193 26.6 39.426 27.52 40.0393 27.52C40.7326 27.52 42.4126 26.1333 45.0793 23.36C45.5593 22.8267 45.906 22.56 46.1193 22.56ZM27.2393 24.96C27.2393 27.0133 27.9993 28.04 29.5193 28.04C30.426 28.04 31.3326 27.6933 32.2393 27C33.1726 26.3067 33.8926 25.1467 34.3993 23.52C34.4526 21.12 34.7326 18.48 35.2393 15.6C33.106 16.0267 31.2393 17.0667 29.6393 18.72C28.0393 20.3733 27.2393 22.4533 27.2393 24.96Z" fill="#030A12"/>
<path d="M12.3076 14.16C14.6276 14.16 15.7876 14.7467 15.7876 15.92C15.7876 17.28 14.4543 17.96 11.7876 17.96C11.2009 17.96 10.5609 17.8533 9.8676 17.64C9.09426 18.1733 8.49426 18.84 8.0676 19.64C7.6676 20.44 7.4676 21.6 7.4676 23.12C7.4676 24.6133 8.05426 25.72 9.2276 26.44C10.4276 27.16 11.8276 27.52 13.4276 27.52C15.0543 27.52 16.3609 27.2667 17.3476 26.76C18.3609 26.2267 19.2409 25.6533 19.9876 25.04C20.7343 24.4267 21.3343 23.8667 21.7876 23.36C22.2676 22.8267 22.6143 22.56 22.8276 22.56C23.0409 22.56 23.2143 22.7067 23.3476 23C23.4809 23.2667 23.5476 23.6267 23.5476 24.08C23.5476 26.2133 22.3609 28.0933 19.9876 29.72C17.6409 31.32 14.8276 32.12 11.5476 32.12C6.4276 32.12 3.1076 30.64 1.5876 27.68C1.05426 26.64 0.787598 25.3867 0.787598 23.92C0.787598 20.1067 2.69426 17.44 6.5076 15.92C4.56093 14.56 3.5876 12.5067 3.5876 9.75999C3.5876 8.45333 3.9476 7.23999 4.6676 6.11999C4.00093 5.37333 3.45426 4.58666 3.0276 3.75999C2.6276 2.93333 2.4276 2.30666 2.4276 1.87999C2.4276 1.13333 2.69426 0.759995 3.2276 0.759995C3.60093 0.759995 4.05426 1.05333 4.5876 1.63999C5.1476 2.19999 5.60093 2.65333 5.9476 2.99999C6.29427 3.34666 6.65426 3.62666 7.0276 3.83999C9.29426 2.45333 11.9609 1.75999 15.0276 1.75999C18.0943 1.75999 20.1343 2.61333 21.1476 4.31999C21.5209 4.95999 21.7076 5.74666 21.7076 6.67999C21.7076 8.09333 21.0943 9.27999 19.8676 10.24C18.6409 11.2 17.0276 11.68 15.0276 11.68C13.0276 11.68 11.1609 11.04 9.4276 9.75999C9.40093 9.86666 9.3876 9.97333 9.3876 10.08V10.96C9.3876 11.44 9.53426 12.0133 9.8276 12.68C10.1476 13.32 10.5343 13.8533 10.9876 14.28C11.3876 14.2 11.8276 14.16 12.3076 14.16ZM17.2676 7.27999C17.2676 6.23999 16.4143 5.71999 14.7076 5.71999C13.0009 5.71999 11.6276 6.23999 10.5876 7.27999C12.0276 8.15999 13.4943 8.59999 14.9876 8.59999C16.5076 8.59999 17.2676 8.15999 17.2676 7.27999Z" fill="#030A12"/>
</svg>
